<?xml version="1.0" encoding="utf-8"?>
<!-- Generator: Adobe Illustrator 22.0.1, SVG Export Plug-In . SVG Version: 6.00 Build 0)  -->
<svg version="1.1" id="Layer_1" xmlns="http://www.w3.org/2000/svg" xmlns:xlink="http://www.w3.org/1999/xlink" x="0px" y="0px"
	 viewBox="0 0 128 128" style="enable-background:new 0 0 128 128;" xml:space="preserve">
<style type="text/css">
	.st0{display:none;}
	.st1{display:inline;}
	.st2{fill:#FFFFFF;}
	.st3{display:inline;fill:#FFFFFF;}
	.st4{display:inline;fill:#C1C1C1;}
	.st5{fill:#089447;}
	.st6{display:inline;fill:url(#SVGID_1_);}
	.st7{display:inline;fill:url(#SVGID_2_);}
	.st8{fill:url(#SVGID_3_);}
</style>
<g id="Layer_1_1_" class="st0">
	<g class="st1">
		<ellipse class="st2" cx="64" cy="62.7" rx="19.1" ry="20"/>
		<path class="st2" d="M92.6,99.7C92.6,99.6,92.6,99.6,92.6,99.7v-0.3l0,0C92.5,88.5,84,79.7,73.5,79.7c-3.5,0-6.7,1-9.5,2.7
			c-2.8-1.7-6.1-2.7-9.5-2.7c-10.5,0-19,8.8-19.1,19.8l0,0v0.2l0,0l0,0v26.9h57.3L92.6,99.7L92.6,99.7z"/>
	</g>
	<path class="st3" d="M110,8c5.5,0,10,4.5,10,10v92c0,5.5-4.5,10-10,10H18c-5.5,0-10-4.5-10-10V18c0-5.5,4.5-10,10-10H110 M110,0H18
		C8.1,0,0,8.1,0,18v92c0,9.9,8.1,18,18,18h92c9.9,0,18-8.1,18-18V18C128,8.1,119.9,0,110,0L110,0z"/>
</g>
<g id="Layer_3" class="st0">
	<g class="st1">
		<path class="st2" d="M67,35.3c4.2,0,7.6,3.4,7.6,7.6c0,0.6-0.1,1.2-0.2,1.8l-0.8,3.1l3.1-0.5c0.5-0.1,0.9-0.1,1.3-0.1
			c3.5,0,6.7,2.4,7.7,5.8l0.6,2l2-0.6c1.4-0.4,2.8-0.6,4.2-0.6c8,0,14.5,6.5,14.5,14.5c0,7.9-6.5,14.5-14.4,14.5h-2.1l0,0h-57h-0.1
			h-0.1H33c-0.1,0-0.2,0-0.3,0c-6.1,0-11.1-5-11.1-11.1s5-11.1,11.1-11.1c0.6,0,1.3,0.1,2,0.2h0.2h0.2H36h2.6L38,58.3
			c-0.3-1.1-0.4-2.2-0.4-3.3c0-8.1,6.6-14.7,14.7-14.7c1.7,0,3.3,0.3,4.9,0.9l1.9,0.7l0.7-1.9C61.1,37.2,63.9,35.3,67,35.3 M67,33.2
			c-4.1,0-7.6,2.6-9,6.1c-1.8-0.6-3.7-1-5.6-1c-9.3,0-16.8,7.5-16.8,16.8c0,1.3,0.2,2.6,0.4,3.8h-0.7c-0.8-0.1-1.5-0.2-2.3-0.2
			c-7.3,0-13.1,5.9-13.1,13.1C19.8,79.1,25.7,85,33,85c0.2,0,0.4,0,0.6,0h59.1v-0.1c9.1-0.1,16.5-7.5,16.5-16.6
			c0-9.2-7.4-16.6-16.6-16.6c-1.7,0-3.3,0.3-4.8,0.7c-1.2-4.2-5.1-7.2-9.7-7.2c-0.6,0-1.1,0.1-1.6,0.1c0.2-0.8,0.3-1.5,0.3-2.4
			C76.6,37.5,72.3,33.2,67,33.2L67,33.2z"/>
	</g>
</g>
<g id="Layer_3_copy" class="st0">
	<circle class="st4" cx="35.9" cy="72.3" r="12.6"/>
	<circle class="st4" cx="93.1" cy="68.9" r="16"/>
	<circle class="st4" cx="68.6" cy="44.5" r="9.3"/>
	<circle class="st4" cx="79.2" cy="56.3" r="9.8"/>
	<circle class="st4" cx="54.5" cy="56.3" r="16.1"/>
	<rect x="35.6" y="59.9" class="st4" width="57.7" height="25.1"/>
</g>
<g id="Layer_2_1_" class="st0">
	<g class="st1">
		<path class="st2" d="M36.1,93.1c-10.7,0-19.4-8.7-19.4-19.4s8.7-19.4,19.4-19.4c2,0,3.9,0.3,5.7,0.9l1.1,0.3l0.2-1.1
			c1.9-11.3,11.5-19.5,23-19.5c12.3,0,22.5,9.6,23.2,21.8v0.8l0.8,0.1c2.2,0.4,4,1.9,4.8,3.9l0.3,0.6h0.7c8.5,0,15.5,6.9,15.5,15.5
			c0,8.5-6.9,15.5-15.5,15.5h-1l0,0H36.3C36.2,93.1,36.1,93.1,36.1,93.1z"/>
		<g>
			<path class="st5" d="M66.1,35.9c11.7,0,21.5,9.2,22.2,20.9l0.1,1.6l1.6,0.3c1.8,0.3,3.4,1.6,4.1,3.3l0.5,1.3H96
				c8,0,14.5,6.5,14.5,14.5S104,92.2,96.1,92.3l0,0H96h-2l0,0H36.5c-0.1,0-0.1,0-0.2,0c-10.1,0-18.4-8.3-18.4-18.4
				c0-10.2,8.3-18.4,18.4-18.4c1.9,0,3.7,0.3,5.4,0.8l2.2,0.7l0.4-2.3C45.9,43.7,55.1,35.9,66.1,35.9 M66.1,33.9
				c-12.1,0-22,8.8-23.9,20.3c-1.9-0.6-3.9-0.9-6-0.9c-11.3,0-20.4,9.1-20.4,20.4s9.1,20.4,20.4,20.4c0.1,0,0.1,0,0.2,0h59.5l0,0
				c0,0,0,0,0.1,0c9.1,0,16.5-7.4,16.5-16.5s-7.4-16.5-16.4-16.5c-0.9-2.4-3-4.1-5.6-4.5C89.5,43.9,79,33.9,66.1,33.9L66.1,33.9z"/>
		</g>
	</g>
	<g class="st1">
		<circle class="st2" cx="64" cy="64" r="63"/>
		<path class="st5" d="M64,1.9c34.2,0,62.1,27.9,62.1,62.1S98.2,126.1,64,126.1S1.9,98.2,1.9,64S29.8,1.9,64,1.9 M64,0
			C28.7,0,0,28.7,0,64s28.7,64,64,64s64-28.7,64-64S99.3,0,64,0L64,0z"/>
	</g>
</g>
<g id="Layer_6">
	<g class="st0">
		<linearGradient id="SVGID_1_" gradientUnits="userSpaceOnUse" x1="19.4523" y1="108.5477" x2="108.5477" y2="19.4523">
			<stop  offset="0" style="stop-color:#C4E538"/>
			<stop  offset="1" style="stop-color:#009432"/>
		</linearGradient>
		<circle class="st6" cx="64" cy="64" r="63"/>
		<linearGradient id="SVGID_2_" gradientUnits="userSpaceOnUse" x1="18.7625" y1="109.2375" x2="109.2375" y2="18.7625">
			<stop  offset="0" style="stop-color:#C4E538"/>
			<stop  offset="1" style="stop-color:#009432"/>
		</linearGradient>
		<path class="st7" d="M64,1.9c34.2,0,62.1,27.9,62.1,62.1S98.2,126.1,64,126.1S1.9,98.2,1.9,64S29.8,1.9,64,1.9 M64,0
			C28.7,0,0,28.7,0,64s28.7,64,64,64s64-28.7,64-64S99.3,0,64,0L64,0z"/>
	</g>
	<linearGradient id="SVGID_3_" gradientUnits="userSpaceOnUse" x1="38.5" y1="95.9" x2="88.6011" y2="45.7989">
		<stop  offset="0" style="stop-color:#C4E538"/>
		<stop  offset="1" style="stop-color:#009432"/>
	</linearGradient>
	<path class="st8" d="M93.5,57.6c-0.9-2.2-2.8-3.8-5.2-4.2C87.6,41.7,77.9,32.5,66,32.5c-11.1,0-20.3,8.1-22,18.7
		c-1.8-0.5-3.6-0.8-5.6-0.8c-10.4,0-18.8,8.4-18.8,18.8S28,88,38.4,88c0.1,0,0.1,0,0.2,0h54.8l0,0c0,0,0,0,0.1,0
		c8.4,0,15.2-6.8,15.2-15.2S101.9,57.6,93.5,57.6z"/>
</g>
<g id="Cloud_1__x28_shapes-seperated_x29_" class="st0">
	<g class="st1">
		<circle class="st2" cx="35.9" cy="73.5" r="20.4"/>
		<circle class="st2" cx="95.7" cy="77.5" r="16.5"/>
		<circle class="st2" cx="88.8" cy="63.8" r="7.4"/>
		<circle class="st2" cx="65.9" cy="58" r="24.3"/>
		<rect x="36.1" y="68.9" class="st2" width="59.6" height="25.1"/>
	</g>
</g>
</svg>
