<?xml version="1.0" encoding="utf-8"?>
<!-- Generator: Adobe Illustrator 22.0.1, SVG Export Plug-In . SVG Version: 6.00 Build 0)  -->
<svg version="1.1" xmlns="http://www.w3.org/2000/svg" xmlns:xlink="http://www.w3.org/1999/xlink" x="0px" y="0px"
	 viewBox="0 0 128 128" style="enable-background:new 0 0 128 128;" xml:space="preserve">
<style type="text/css">
	.st0{display:none;}
	.st1{display:inline;fill:#FFFFFF;}
	.st2{display:inline;fill:none;stroke:#FFFFFF;stroke-width:4;stroke-miterlimit:10;}
	.st3{display:inline;fill:#C1C1C1;}
	.st4{display:inline;fill:#089447;}
	.st5{fill:none;stroke:#FFFFFF;stroke-width:4;stroke-miterlimit:10;}
	.st6{display:inline;}
	.st7{fill:#FFFFFF;}
</style>
<g id="Layer_1" class="st0">
	<g>
		<ellipse class="st1" cx="64" cy="62.7" rx="19.1" ry="20"/>
		<path class="st1" d="M92.6,99.7C92.6,99.6,92.6,99.6,92.6,99.7l0-0.3h0C92.5,88.5,84,79.7,73.5,79.7c-3.5,0-6.7,1-9.5,2.7
			c-2.8-1.7-6.1-2.7-9.5-2.7c-10.5,0-19,8.8-19.1,19.8h0v0.2c0,0,0,0,0,0s0,0,0,0v26.9h57.3L92.6,99.7
			C92.6,99.7,92.6,99.7,92.6,99.7z"/>
	</g>
	<path class="st1" d="M110,8c5.5,0,10,4.5,10,10v92c0,5.5-4.5,10-10,10H18c-5.5,0-10-4.5-10-10V18c0-5.5,4.5-10,10-10H110 M110,0H18
		C8.1,0,0,8.1,0,18v92c0,9.9,8.1,18,18,18h92c9.9,0,18-8.1,18-18V18C128,8.1,119.9,0,110,0L110,0z"/>
</g>
<g id="Layer_3" class="st0">
	<path class="st2" d="M109.1,68.2c0-9.2-7.4-16.6-16.6-16.6c-1.7,0-3.3,0.3-4.8,0.7c-1.2-4.2-5.1-7.2-9.7-7.2
		c-0.6,0-1.1,0.1-1.6,0.1c0.2-0.8,0.3-1.5,0.3-2.4c0-5.3-4.3-9.7-9.7-9.7c-4.1,0-7.6,2.6-9,6.1c-1.8-0.6-3.7-1-5.6-1
		c-9.3,0-16.8,7.5-16.8,16.8c0,1.3,0.2,2.6,0.4,3.8h-0.7c-0.8-0.1-1.5-0.2-2.3-0.2c-7.3,0-13.1,5.9-13.1,13.1
		C19.8,79.1,25.7,85,33,85c0.2,0,0.4,0,0.6,0h59.1v-0.1C101.8,84.8,109.1,77.4,109.1,68.2z"/>
</g>
<g id="Layer_3_copy" class="st0">
	<circle class="st3" cx="35.9" cy="72.3" r="12.6"/>
	<circle class="st3" cx="93.1" cy="68.9" r="16"/>
	<circle class="st3" cx="68.6" cy="44.5" r="9.3"/>
	<circle class="st3" cx="79.2" cy="56.3" r="9.8"/>
	<circle class="st3" cx="54.5" cy="56.3" r="16.1"/>
	<rect x="35.6" y="59.9" class="st3" width="57.7" height="25.1"/>
</g>
<g id="Layer_2" class="st0">
	<path class="st2" d="M95.9,61.2c-0.9-2.4-3-4.1-5.6-4.5C89.5,43.9,79,33.9,66.1,33.9c-12.1,0-22,8.8-23.9,20.3
		c-1.9-0.6-3.9-0.9-6-0.9c-11.3,0-20.4,9.1-20.4,20.4s9.1,20.4,20.4,20.4c0.1,0,0.1,0,0.2,0h59.5v0c0,0,0,0,0.1,0
		c9.1,0,16.5-7.4,16.5-16.5C112.3,68.5,105,61.2,95.9,61.2z"/>
	<g>
		<circle class="st1" cx="64" cy="64" r="63"/>
		<path class="st4" d="M64,1.9c34.2,0,62.1,27.9,62.1,62.1S98.2,126.1,64,126.1S1.9,98.2,1.9,64S29.8,1.9,64,1.9 M64,0
			C28.7,0,0,28.7,0,64s28.7,64,64,64s64-28.7,64-64S99.3,0,64,0L64,0z"/>
	</g>
</g>
<g id="Layer_6">
	<g class="st0">
		<circle class="st1" cx="64" cy="64" r="63"/>
		<path class="st4" d="M64,1.9c34.2,0,62.1,27.9,62.1,62.1S98.2,126.1,64,126.1S1.9,98.2,1.9,64S29.8,1.9,64,1.9 M64,0
			C28.7,0,0,28.7,0,64s28.7,64,64,64s64-28.7,64-64S99.3,0,64,0L64,0z"/>
	</g>
	<path class="st5" d="M93.5,57.6c-0.9-2.2-2.8-3.8-5.2-4.2c-0.7-11.7-10.4-20.9-22.3-20.9c-11.1,0-20.3,8.1-22,18.7
		c-1.8-0.5-3.6-0.8-5.6-0.8c-10.4,0-18.8,8.4-18.8,18.8s8.4,18.8,18.8,18.8c0.1,0,0.1,0,0.2,0h54.8v0c0,0,0,0,0.1,0
		c8.4,0,15.2-6.8,15.2-15.2C108.7,64.4,101.9,57.6,93.5,57.6z"/>
</g>
<g id="Cloud_1__x28_shapes-seperated_x29_" class="st0">
	<g class="st6">
		<circle class="st7" cx="35.9" cy="73.5" r="20.4"/>
		<circle class="st7" cx="95.7" cy="77.5" r="16.5"/>
		<circle class="st7" cx="88.8" cy="63.8" r="7.4"/>
		<circle class="st7" cx="65.9" cy="58" r="24.3"/>
		<rect x="36.1" y="68.9" class="st7" width="59.6" height="25.1"/>
	</g>
</g>
</svg>
