<svg id="Layer_1" data-name="Layer 1" xmlns="http://www.w3.org/2000/svg" viewBox="0 0 50.05 50.05"><defs><style>.cls-1{fill:#4eba6f;}</style></defs><title>clover</title><path class="cls-1" d="M15.89,22.27h2.8A8.33,8.33,0,0,1,27,30.6V41.73a0,0,0,0,1,0,0H15.89A8.33,8.33,0,0,1,7.56,33.4V30.6a8.33,8.33,0,0,1,8.33-8.33Z" transform="translate(-24.54 14.62) rotate(-45)"/><path class="cls-1" d="M30.6,7.56h2.8a8.33,8.33,0,0,1,8.33,8.33v2.8A8.33,8.33,0,0,1,33.4,27H22.27a0,0,0,0,1,0,0V15.89A8.33,8.33,0,0,1,30.6,7.56Z" transform="translate(-9.83 20.71) rotate(-45)"/><path class="cls-1" d="M30.6,37H41.73a0,0,0,0,1,0,0V48.11a8.33,8.33,0,0,1-8.33,8.33H30.6a8.33,8.33,0,0,1-8.33-8.33v-2.8A8.33,8.33,0,0,1,30.6,37Z" transform="translate(-30.64 29.33) rotate(-45)"/><path class="cls-1" d="M37,22.27H48.11a8.33,8.33,0,0,1,8.33,8.33v2.8a8.33,8.33,0,0,1-8.33,8.33h-2.8A8.33,8.33,0,0,1,37,33.4V22.27a0,0,0,0,1,0,0Z" transform="translate(-15.92 35.43) rotate(-45)"/></svg>