<svg xmlns="http://www.w3.org/2000/svg" viewBox="0 0 128 128"><defs><style>.cls-1{fill:#fff;}</style></defs><title>CloverLogoBWhite</title><g id="Layer_4" data-name="Layer 4"><path class="cls-1" d="M28.28,9h0l0,0-.3.32L19,18.92,9,28.08H9a18,18,0,0,0-4.68,7.65A19.23,19.23,0,0,0,22.6,61H58.88a2.07,2.07,0,0,0,2.06-2.07V22.6A19.17,19.17,0,0,0,41.77,3.43h0A19.11,19.11,0,0,0,28.28,9Z"/><path class="cls-1" d="M28.28,118.12h0l0,0-.3-.32L19,108.18,9,99H9a18,18,0,0,1-4.68-7.65A19.23,19.23,0,0,1,22.6,66.15H58.88a2.07,2.07,0,0,1,2.06,2.07V104.5a19.17,19.17,0,0,1-19.17,19.17h0A19.11,19.11,0,0,1,28.28,118.12Z"/><path class="cls-1" d="M98.81,9h0l0,0,.3.33,8.94,9.59,10,9.15h0a18,18,0,0,1,4.68,7.65A19.23,19.23,0,0,1,104.5,60.94H68.22a2.07,2.07,0,0,1-2.07-2.06V22.6A19.18,19.18,0,0,1,85.33,3.42h0A19.05,19.05,0,0,1,98.81,9Z"/><path class="cls-1" d="M98.81,118.13h0l0,0,.3-.32,8.94-9.6,10-9.15h0a18,18,0,0,0,4.68-7.65A19.23,19.23,0,0,0,104.5,66.16H68.22a2.07,2.07,0,0,0-2.07,2.06v36.29a19.18,19.18,0,0,0,19.18,19.17h0A19.08,19.08,0,0,0,98.81,118.13Z"/></g></svg>