<svg id="Layer_1" data-name="Layer 1" xmlns="http://www.w3.org/2000/svg" viewBox="0 0 63.88 63.88"><defs><style>.cls-1{fill:#fdfefe;}</style></defs><title>clover REV B</title><path class="cls-1" d="M.06,1.46V62.54a1.4,1.4,0,0,0,1.4,1.4H62.54a1.4,1.4,0,0,0,1.4-1.4V1.46a1.4,1.4,0,0,0-1.4-1.4H1.46A1.4,1.4,0,0,0,.06,1.46Zm25.12,9h0a9.73,9.73,0,0,1,13.76,0h0a9.73,9.73,0,0,1,0,13.76l-5.89,5.89a1.41,1.41,0,0,1-2,0l-5.89-5.89A9.73,9.73,0,0,1,25.18,10.47ZM10.47,38.94h0a9.73,9.73,0,0,1,0-13.76h0a9.73,9.73,0,0,1,13.76,0l5.89,5.89a1.41,1.41,0,0,1,0,2l-5.89,5.89A9.73,9.73,0,0,1,10.47,38.94ZM38.94,53.66h0a9.73,9.73,0,0,1-13.76,0h0a9.73,9.73,0,0,1,0-13.76L31.07,34a1.39,1.39,0,0,1,2,0l5.89,5.89A9.73,9.73,0,0,1,38.94,53.66ZM53.66,38.94h0a9.73,9.73,0,0,1-13.76,0L34,33.05a1.39,1.39,0,0,1,0-2l5.89-5.89a9.73,9.73,0,0,1,13.76,0h0A9.73,9.73,0,0,1,53.66,38.94Z" transform="translate(-0.06 -0.06)"/></svg>