<svg xmlns="http://www.w3.org/2000/svg" viewBox="0 0 1755.04 128"><defs><style>.cls-1{fill:#231f20;}.cls-2{fill:#258220;}.cls-3{fill:#fff;}</style></defs><title>CloverLogoBWhite</title><g id="Layer_1" data-name="Layer 1"><rect class="cls-1" y="0.05" width="64" height="64"/></g><g id="Layer_4" data-name="Layer 4"><path class="cls-2" d="M193.83,15.83a16,16,0,0,0-16,16h0a16,16,0,0,0-16,16h0a16,16,0,0,0,16,16h32v-32h0A16,16,0,0,0,193.83,15.83Z" transform="translate(0.04)"/><path class="cls-2" d="M229.33,15.83a16,16,0,0,1,16,16h0a16,16,0,0,1,16,16h0a16,16,0,0,1-16,16h-32v-32h0A16,16,0,0,1,229.33,15.83Z" transform="translate(0.04)"/><path class="cls-2" d="M161.83,84.33a16,16,0,0,0,16,16h0a16,16,0,0,0,16,16h0a16,16,0,0,0,16-16v-32h-32A16,16,0,0,0,161.83,84.33Z" transform="translate(0.04)"/><path class="cls-2" d="M229.67,116.5a16,16,0,0,0,16-16h0a16,16,0,0,0,16-16h0a16,16,0,0,0-16-16h-32v32h0A16,16,0,0,0,229.67,116.5Z" transform="translate(0.04)"/><path class="cls-2" d="M341.83,13.83a16,16,0,0,0-16,16h0a16,16,0,0,0-16,16h0a16,16,0,0,0,16,16h32v-32h0A16,16,0,0,0,341.83,13.83Z" transform="translate(0.04)"/><path class="cls-2" d="M373.86,13.83a16,16,0,0,1,16,16h0a16,16,0,0,1,16,16h0a16,16,0,0,1-16,16h-32v-32h0A16,16,0,0,1,373.86,13.83Z" transform="translate(0.04)"/><path class="cls-2" d="M309.83,77.83a16,16,0,0,0,16,16h0a16,16,0,0,0,16,16h0a16,16,0,0,0,16-16v-32h-32A16,16,0,0,0,309.83,77.83Z" transform="translate(0.04)"/><path class="cls-2" d="M373.85,109.82a16,16,0,0,0,16-16h0a16,16,0,0,0,16-16h0a16,16,0,0,0-16-16h-32v32h0A16,16,0,0,0,373.85,109.82Z" transform="translate(0.04)"/><path class="cls-2" d="M489.74,13.75a16,16,0,0,0-16,16h0a16,16,0,0,0-16,16h0a16,16,0,0,0,16,16h32v-32h0A16,16,0,0,0,489.74,13.75Z" transform="translate(0.04)"/><path class="cls-2" d="M526.27,13.75a16,16,0,0,1,16,16h0a16,16,0,0,1,16,16h0a16,16,0,0,1-16,16h-32v-32h0A16,16,0,0,1,526.27,13.75Z" transform="translate(0.04)"/><path class="cls-2" d="M457.73,82.25a16,16,0,0,0,16,16h0a16,16,0,0,0,16,16h0a16,16,0,0,0,16-16v-32h-32A16,16,0,0,0,457.73,82.25Z" transform="translate(0.04)"/><path class="cls-2" d="M526.25,114.24a16,16,0,0,0,16-16h0a16,16,0,0,0,16-16h0a16,16,0,0,0-16-16h-32v32h0A16,16,0,0,0,526.25,114.24Z" transform="translate(0.04)"/><path class="cls-2" d="M656,0a64,64,0,1,0,64,64A64,64,0,0,0,656,0Zm-2.27,98.25a16,16,0,0,1-16,16h0a16,16,0,0,1-16-16h0a16,16,0,0,1,0-32h32Zm0-68.5v32h-32a16,16,0,0,1-16-16h0a16,16,0,0,1,16-16h0a16,16,0,0,1,32,0Zm52.51,52.49a16,16,0,0,1-16,16h0a16,16,0,1,1-32,0h0v-32h32a16,16,0,0,1,16,16Zm-16-20.49h-32v-32h0a16,16,0,0,1,32,0h0a16,16,0,0,1,16,16h0A16,16,0,0,1,690.27,61.75Z" transform="translate(0.04)"/><path class="cls-2" d="M785.74,13.75a16,16,0,0,0-16,16h0a16,16,0,0,0-16,16h0a16,16,0,0,0,16,16h32v-32h0A16,16,0,0,0,785.74,13.75Z" transform="translate(0.04)"/><path class="cls-2" d="M822.27,13.75a16,16,0,0,1,16,16h0a16,16,0,0,1,16,16h0a16,16,0,0,1-16,16h-32v-32h0A16,16,0,0,1,822.27,13.75Z" transform="translate(0.04)"/><path class="cls-2" d="M753.73,82.25a16,16,0,0,0,16,16h0a16,16,0,0,0,16,16h0a16,16,0,0,0,16-16v-32h-32A16,16,0,0,0,753.73,82.25Z" transform="translate(0.04)"/><path class="cls-2" d="M822.25,114.24a16,16,0,0,0,16-16h0a16,16,0,0,0,16-16h0a16,16,0,0,0-16-16h-32v32h0A16,16,0,0,0,822.25,114.24Z" transform="translate(0.04)"/><rect class="cls-2" x="822.31" y="23.19" width="22.63" height="22.63" transform="translate(219.81 599.57) rotate(-45)"/><path class="cls-2" d="M997,36.66h0l0,0-.27-.25-8-7.46L981,20.6h0a15,15,0,0,0-6.38-3.91,16,16,0,0,0-21,15.23h0V62.2a1.72,1.72,0,0,0,1.72,1.72H985.6a16,16,0,0,0,16-16h0A16,16,0,0,0,997,36.66Z" transform="translate(0.04)"/><path class="cls-2" d="M910.23,36.66h0l0,0,.28-.25,8-7.46,7.64-8.33h0a15.09,15.09,0,0,1,6.38-3.91A16.05,16.05,0,0,1,953.6,31.92h0V62.2a1.72,1.72,0,0,1-1.72,1.72H921.6a16,16,0,0,1-16-16h0A16,16,0,0,1,910.23,36.66Z" transform="translate(0.04)"/><path class="cls-2" d="M997,91.17h0l0,0-.28.25-8,7.46L981,107.24h0a15,15,0,0,1-6.38,3.91,16.06,16.06,0,0,1-21-15.23h0V65.64a1.72,1.72,0,0,1,1.72-1.72H985.6a16,16,0,0,1,16,16h0A15.94,15.94,0,0,1,997,91.17Z" transform="translate(0.04)"/><path class="cls-2" d="M910.23,91.17h0l0,0,.27.25,8,7.46,7.64,8.33h0a15.06,15.06,0,0,0,6.39,3.91,16.05,16.05,0,0,0,21-15.23h0V65.64a1.72,1.72,0,0,0-1.72-1.72H921.59a16,16,0,0,0-16,16h0A16,16,0,0,0,910.23,91.17Z" transform="translate(0.04)"/><path class="cls-2" d="M1145.16,34.94h0l0,0a3.2,3.2,0,0,0-.27-.25l-8-7.46-7.64-8.33h0a15.06,15.06,0,0,0-6.39-3.91,16,16,0,0,0-21,15.23h0V60.48a1.72,1.72,0,0,0,1.72,1.72h30.28a16,16,0,0,0,16-16h0A16,16,0,0,0,1145.16,34.94Z" transform="translate(0.04)"/><path class="cls-2" d="M1054.84,34.94h0l0,0a3.2,3.2,0,0,1,.27-.25l8-7.46,7.64-8.33h0a15.06,15.06,0,0,1,6.39-3.91,16,16,0,0,1,21,15.23h0V60.48a1.72,1.72,0,0,1-1.72,1.72H1066.2a16,16,0,0,1-16-16h0A16,16,0,0,1,1054.84,34.94Z" transform="translate(0.04)"/><path class="cls-2" d="M1145.17,93.06h0l0,0-.27.25-8,7.46-7.64,8.33h0a15,15,0,0,1-6.38,3.91,16.05,16.05,0,0,1-21-15.23h0V67.52a1.72,1.72,0,0,1,1.72-1.72h30.28a16,16,0,0,1,16,16h0A16,16,0,0,1,1145.17,93.06Z" transform="translate(0.04)"/><path class="cls-2" d="M1054.83,93.06h0l0,0,.27.25,8,7.46,7.64,8.33h0a15,15,0,0,0,6.38,3.91,16.05,16.05,0,0,0,21-15.23h0V67.52a1.72,1.72,0,0,0-1.72-1.72H1066.2a16,16,0,0,0-16,16h0A16,16,0,0,0,1054.83,93.06Z" transform="translate(0.04)"/><path class="cls-2" d="M1263.89,62.2h17.91a16,16,0,0,0,16-16h0a16,16,0,0,0-4.64-11.26h0l0,0a3.2,3.2,0,0,0-.27-.25l-8-7.46-7.64-8.33h0a15.06,15.06,0,0,0-6.39-3.91,16,16,0,0,0-21,15.23h0V48.11A16,16,0,0,1,1263.89,62.2Z" transform="translate(0.04)"/><path class="cls-2" d="M1246.2,48.11V30.2h0a16,16,0,0,0-21-15.23,15.06,15.06,0,0,0-6.39,3.91h0l-7.64,8.33-8,7.46a3.2,3.2,0,0,0-.27.25l0,0h0a16,16,0,0,0-4.64,11.26h0a16,16,0,0,0,16,16h17.91A16,16,0,0,1,1246.2,48.11Z" transform="translate(0.04)"/><path class="cls-2" d="M1297.8,81.8a16,16,0,0,0-16-16h-17.91a16,16,0,0,1-14.09,14.09V97.8h0a16.05,16.05,0,0,0,21,15.23,15,15,0,0,0,6.38-3.91h0l7.64-8.33,8-7.46.27-.25,0,0h0a16,16,0,0,0,4.63-11.26Z" transform="translate(0.04)"/><path class="cls-2" d="M1232.11,65.8H1214.2a16,16,0,0,0-16,16h0a16,16,0,0,0,4.63,11.26h0l0,0,.27.25,8,7.46,7.64,8.33h0a15,15,0,0,0,6.38,3.91,16.05,16.05,0,0,0,21-15.23h0V79.89A16,16,0,0,1,1232.11,65.8Z" transform="translate(0.04)"/><path class="cls-2" d="M1409.65,1.11h0l-.45,0-13.1.46L1382.53,1h0a18.13,18.13,0,0,0-8.72,2.1,19.24,19.24,0,0,0-4.93,30.74h0l25.66,25.65a2,2,0,0,0,2.91,0l25.66-25.65a19.17,19.17,0,0,0,0-27.12h0A19.09,19.09,0,0,0,1409.65,1.11Z" transform="translate(0.04)"/><path class="cls-2" d="M1333.11,77.65h0v0c0-.15,0-.3,0-.45l.46-13.1L1333,50.53h0a18.13,18.13,0,0,1,2.1-8.72,19.24,19.24,0,0,1,30.74-4.93h0l25.65,25.66a2,2,0,0,1,0,2.91l-25.65,25.66a19.17,19.17,0,0,1-27.12,0h0A19.13,19.13,0,0,1,1333.11,77.65Z" transform="translate(0.04)"/><path class="cls-2" d="M1458.89,50.34h0v0c0,.15,0,.3,0,.45l-.46,13.1.59,13.53h0a18.13,18.13,0,0,1-2.1,8.72,19.24,19.24,0,0,1-30.74,4.93h0l-25.65-25.66a2,2,0,0,1,0-2.91l25.65-25.66a19.17,19.17,0,0,1,27.12,0h0A19.13,19.13,0,0,1,1458.89,50.34Z" transform="translate(0.04)"/><path class="cls-2" d="M1382.34,126.89h0l.45,0,13.1-.46,13.53.59h0a18.13,18.13,0,0,0,8.72-2.1,19.24,19.24,0,0,0,4.93-30.74h0l-25.66-25.65a2,2,0,0,0-2.91,0l-25.66,25.65a19.17,19.17,0,0,0,0,27.12h0A19.09,19.09,0,0,0,1382.34,126.89Z" transform="translate(0.04)"/><path class="cls-3" d="M1510.4,11.78h0l0,0-.23.4a62,62,0,0,1-7.52,10.33,62.8,62.8,0,0,1-10.8,7.67h0a15.94,15.94,0,0,0-6.15,6.62c-6.52,12.75,10.45,25.85,24.36,25.36h0c13.48.18,22.47.28,31,.3a1.44,1.44,0,0,0,1.45-1.45c0-8.52-.11-17.52-.29-31,.19-11.6-8.57-25.83-19.52-25.72h0C1517.38,4.34,1513.14,7.57,1510.4,11.78Z" transform="translate(0.04)"/><path class="cls-3" d="M1510.4,116.22h0l0,0c-.08-.13-.15-.27-.23-.41a62.83,62.83,0,0,0-7.52-10.33,63.31,63.31,0,0,0-10.8-7.66h0a16,16,0,0,1-6.15-6.62c-6.52-12.75,10.45-25.85,24.36-25.36h0c13.48-.18,22.47-.28,31-.3a1.44,1.44,0,0,1,1.45,1.45c0,8.52-.11,17.52-.29,31,.19,11.6-8.57,25.83-19.52,25.72h0C1517.38,123.66,1513.14,120.43,1510.4,116.22Z" transform="translate(0.04)"/><path class="cls-3" d="M1577.59,11.78h0l0,0c.09.12.16.27.24.4a63,63,0,0,0,7.51,10.33,63.71,63.71,0,0,0,10.8,7.66h0a16.09,16.09,0,0,1,6.16,6.62c6.51,12.75-10.46,25.85-24.37,25.37h0c-13.47.18-22.47.28-31,.29a1.44,1.44,0,0,1-1.45-1.44c0-8.53.12-17.52.29-31-.19-11.6,8.58-25.83,19.53-25.72h0C1570.61,4.33,1574.86,7.56,1577.59,11.78Z" transform="translate(0.04)"/><path class="cls-3" d="M1577.59,116.22h0l0,0c.09-.13.16-.27.24-.41a63.38,63.38,0,0,1,7.51-10.33,63.71,63.71,0,0,1,10.8-7.66h0a16.09,16.09,0,0,0,6.16-6.62c6.51-12.75-10.46-25.85-24.37-25.37h0c-13.47-.18-22.47-.27-31-.29a1.44,1.44,0,0,0-1.45,1.44c0,8.53.12,17.52.29,31-.19,11.6,8.58,25.83,19.53,25.72h0C1570.61,123.67,1574.86,120.44,1577.59,116.22Z" transform="translate(0.04)"/><path class="cls-2" d="M1629.17,50.37h0v0c0,.15,0,.3,0,.45q.36,6.57.74,13.08-.48,6.74-.94,13.54h0a12.29,12.29,0,0,0,3.15,8.33c9.86,10.74,26.49,9.12,35.37.21h0c8.77-8.59,15.32-15,21.31-21a1.43,1.43,0,0,0,0-2c-6-6-12.54-12.4-21.31-21a25.54,25.54,0,0,0-30.37-4h0C1632.23,40.94,1629.19,45.48,1629.17,50.37Z" transform="translate(0.04)"/><path class="cls-2" d="M1705.63,126.82h0l-.44,0-13.09-.74-13.53.94h0a12.31,12.31,0,0,1-8.34-3.15c-10.74-9.86-9.11-26.5-.2-35.37h0c8.59-8.77,15-15.33,21-21.32a1.44,1.44,0,0,1,2,0c6,6,12.39,12.55,21,21.32a25.54,25.54,0,0,1,4,30.37h0C1715.06,123.77,1710.52,126.81,1705.63,126.82Z" transform="translate(0.04)"/><path class="cls-2" d="M1678.36,1.17h0l.45,0,13.09.73L1705.46,1h0a12.29,12.29,0,0,1,8.33,3.15c10.75,9.86,9.12,26.49.21,35.37h0c-8.59,8.77-15,15.32-21,21.31a1.44,1.44,0,0,1-2,0c-6-6-12.39-12.54-21-21.31a25.54,25.54,0,0,1-4-30.37h0C1668.93,4.22,1673.47,1.19,1678.36,1.17Z" transform="translate(0.04)"/><path class="cls-2" d="M1754.82,77.64h0v0c0-.14,0-.29,0-.44q-.36-6.57-.74-13.09c.31-4.48.63-9,.94-13.53h0a12.29,12.29,0,0,0-3.15-8.34c-9.86-10.74-26.5-9.11-35.37-.2h0c-8.77,8.59-15.33,15-21.32,21a1.43,1.43,0,0,0,0,2c6,6,12.55,12.4,21.32,21a25.54,25.54,0,0,0,30.37,4h0C1751.77,87.07,1754.81,82.53,1754.82,77.64Z" transform="translate(0.04)"/></g></svg>