<?xml version="1.0" encoding="utf-8"?>
<!-- Generator: Adobe Illustrator 22.0.1, SVG Export Plug-In . SVG Version: 6.00 Build 0)  -->
<svg version="1.1" id="Layer_1" xmlns="http://www.w3.org/2000/svg" xmlns:xlink="http://www.w3.org/1999/xlink" x="0px" y="0px"
	 viewBox="0 0 128 128" style="enable-background:new 0 0 128 128;" xml:space="preserve">
<style type="text/css">
	.st0{fill:#FFFFFF;}
</style>
<g>
	<ellipse class="st0" cx="64" cy="62.7" rx="19.1" ry="20"/>
	<path class="st0" d="M92.6,99.7C92.6,99.6,92.6,99.6,92.6,99.7l0-0.3h0C92.5,88.5,84,79.7,73.5,79.7c-3.5,0-6.7,1-9.5,2.7
		c-2.8-1.7-6.1-2.7-9.5-2.7c-10.5,0-19,8.8-19.1,19.8h0v0.2c0,0,0,0,0,0s0,0,0,0v26.9h57.3L92.6,99.7C92.6,99.7,92.6,99.7,92.6,99.7
		z"/>
</g>
<path class="st0" d="M110,8c5.5,0,10,4.5,10,10v92c0,5.5-4.5,10-10,10H18c-5.5,0-10-4.5-10-10V18c0-5.5,4.5-10,10-10H110 M110,0H18
	C8.1,0,0,8.1,0,18v92c0,9.9,8.1,18,18,18h92c9.9,0,18-8.1,18-18V18C128,8.1,119.9,0,110,0L110,0z"/>
</svg>
