<svg id="Layer_1" data-name="Layer 1" xmlns="http://www.w3.org/2000/svg" viewBox="0 0 1280.85 720.85"><defs><style>.cls-1{fill:#262626;}.cls-2{fill:none;stroke:#262626;stroke-miterlimit:10;}</style></defs><title>frame</title><path class="cls-1" d="M1279,1V719H1V1H1279m1-1H0V720H1280V0Z" transform="translate(0.85 0.85)"/><path class="cls-1" d="M1179,101V619H101V101H1179m1-1H100V620H1180V100Z" transform="translate(0.85 0.85)"/><path class="cls-1" d="M650,359.5h-9.5V350a.5.5,0,0,0-1,0v9.5H630a.5.5,0,0,0,0,1h9.5V370a.5.5,0,0,0,1,0v-9.5H650a.5.5,0,0,0,0-1Z" transform="translate(0.85 0.85)"/><path class="cls-1" d="M1079,201V519H201V201h878m1-1H200V520h880V200Z" transform="translate(0.85 0.85)"/><path class="cls-1" d="M979,301V419H301V301H979m1-1H300V420H980V300Z" transform="translate(0.85 0.85)"/><line class="cls-2" x1="300.35" y1="300.35" x2="0.35" y2="0.35"/><line class="cls-2" x1="980.35" y1="300.35" x2="1280.35" y2="0.35"/><line class="cls-2" x1="980.35" y1="420.35" x2="1280.35" y2="720.35"/><line class="cls-2" x1="300.35" y1="420.35" x2="0.35" y2="720.35"/><path class="cls-1" d="M650.5,148H641v-9.5a.5.5,0,0,0-1,0V148h-9.5a.5.5,0,0,0,0,1H640v9.5a.5.5,0,0,0,1,0V149h9.5a.5.5,0,0,0,0-1Z" transform="translate(0.85 0.85)"/><path class="cls-1" d="M650.5,570H641v-9.5a.5.5,0,0,0-1,0V570h-9.5a.5.5,0,0,0,0,1H640v9.5a.5.5,0,0,0,1,0V571h9.5a.5.5,0,0,0,0-1Z" transform="translate(0.85 0.85)"/></svg>