<svg xmlns="http://www.w3.org/2000/svg" viewBox="0 0 146 240"><defs><style>.cls-1{fill:#fff;}</style></defs><title>building</title><g id="Layer_5" data-name="Layer 5"><path class="cls-1" d="M9.48,123.17h128V34.92h4v-8H5.48v8h4Zm40.19-35.5h-32v-32h32Zm0-36h-32v-8a8,8,0,0,1,8-8h16a8,8,0,0,1,8,8Zm39.78,36h-32v-32h32Zm0-36h-32v-8a8,8,0,0,1,8-8h16a8,8,0,0,1,8,8ZM129.3,87.5h-32v-32h32Zm0-35.83h-32v-8a8,8,0,0,1,8-8h16a8,8,0,0,1,8,8Z"/><polygon class="cls-1" points="141.48 11.73 81.58 11.73 81.58 3.59 17.58 3.59 17.58 11.73 5.48 11.73 5.48 19.73 141.48 19.73 141.48 11.73"/><path class="cls-1" d="M137,224.63V139.17h4.5v-8H5.46v8H9v85.46H5.5v12h136v-12ZM49.62,159.92v32h-32v-32Zm-32-4.25v-8a8,8,0,0,1,8-8h16a8,8,0,0,1,8,8v8Zm71.76,4.25v32h-32v-32Zm-32-4.25v-8a8,8,0,0,1,8-8h16a8,8,0,0,1,8,8v8Zm72,4.25v64h-32v-64Zm-32-4.25v-8a8,8,0,0,1,8-8h16a8,8,0,0,1,8,8v8Z"/><circle class="cls-1" cx="123.52" cy="192" r="3"/></g></svg>