<svg xmlns="http://www.w3.org/2000/svg" viewBox="0 0 235 514"><defs><style>.cls-1{fill:#fff;}</style></defs><title>building</title><g id="Layer_5" data-name="Layer 5"><path class="cls-1" d="M13.14,173.22h208v-88h8v-8H5.14v8h8Zm40-12h-32v-32h32Zm0-40h-32v-32h32Zm40,40h-32v-32h32Zm0-40h-32v-32h32Zm40,40h-32v-32h32Zm0-40h-32v-32h32Zm40,40h-32v-32h32Zm0-40h-32v-32h32Zm40,40h-32v-32h32Zm0-40h-32v-32h32Z"/><path class="cls-1" d="M13.14,277.22h208v-88h8v-8H5.14v8h8Zm40-12h-32v-32h32Zm0-40h-32v-32h32Zm40,40h-32v-32h32Zm0-40h-32v-32h32Zm40,40h-32v-32h32Zm0-40h-32v-32h32Zm40,40h-32v-32h32Zm0-40h-32v-32h32Zm40,40h-32v-32h32Zm0-40h-32v-32h32Z"/><path class="cls-1" d="M221.53,485.63V397.26h7.61v-8H5.14v8h8.39v88.37H5.86v24h224v-24Zm-44.47-72h-32v-8.06a4,4,0,0,1,4-4h28Zm36,8v64h-32v-64Zm-32-8V401.59h28a4,4,0,0,1,4,4v8.06Zm-79.54,20v-32h32v32Zm32,8v32h-32v-32Zm-72-8v-32h32v32Zm32,8v32h-32v-32Zm-72-8v-32h32v32Zm32,8v32h-32v-32Zm91.53-20h32v64h-32Z"/><path class="cls-1" d="M13.14,381.26h208v-88h8v-8H5.14v8h8Zm40-12h-32v-32h32Zm0-40h-32v-32h32Zm40,40h-32v-32h32Zm0-40h-32v-32h32Zm40,40h-32v-32h32Zm0-40h-32v-32h32Zm40,40h-32v-32h32Zm0-40h-32v-32h32Zm40,40h-32v-32h32Zm0-40h-32v-32h32Z"/><polygon class="cls-1" points="61.52 68.98 69.52 68.98 69.52 68.97 229.14 68.97 229.14 52.97 156.69 52.97 156.69 36.87 139.37 36.87 139.37 4.37 135.37 4.37 135.37 36.87 124.69 36.87 124.69 52.97 69.52 52.97 69.52 37.09 61.52 37.09 61.52 52.97 5.14 52.97 5.14 68.97 61.52 68.97 61.52 68.98"/><circle class="cls-1" cx="171.46" cy="453.55" r="3"/><circle class="cls-1" cx="186.79" cy="453.55" r="3"/></g></svg>