<svg xmlns="http://www.w3.org/2000/svg" viewBox="0 0 144 168.33"><defs><style>.cls-1{fill:#fff;}</style></defs><title>building</title><g id="Layer_5" data-name="Layer 5"><path class="cls-1" d="M135.78,152.21V64.58h4v-8H3.78v8h4v87.63H5v12H141v-12Zm-7.29-67.77h-32a16,16,0,0,1,32,0Zm-72.09,0a16,16,0,1,1,32,0Zm32,4.39v32h-32v-32ZM16.31,84.44a16,16,0,0,1,32,0Zm32,4.39v32h-32v-32Zm48.18,0h32v63.38h-32Z"/><polygon class="cls-1" points="139.75 44.84 129.83 36.05 129.83 10.83 131.83 10.83 131.83 2.83 111.83 2.83 111.83 10.83 113.83 10.83 113.83 21.87 107.98 16.69 35.52 16.69 3.75 44.84 3.75 48.69 139.75 48.69 139.75 44.84"/><circle class="cls-1" cx="122.73" cy="120.83" r="3"/></g></svg>