<?xml version="1.0" encoding="utf-8"?>
<!-- Generator: Adobe Illustrator 22.0.1, SVG Export Plug-In . SVG Version: 6.00 Build 0)  -->
<svg version="1.1" id="Layer_1" xmlns="http://www.w3.org/2000/svg" xmlns:xlink="http://www.w3.org/1999/xlink" x="0px" y="0px"
	 viewBox="0 0 504 432" style="enable-background:new 0 0 504 432;" xml:space="preserve">
<g>
	<path d="M22.7,137.4c44.8,0,89.5,0,134.6,0c0,15.6,0,30.5,0,46.3c-29.3,0-58.5,0-88.2,0c0,17.4,0,33.9,0,51.1
		c2.3,0.2,4.5,0.4,6.7,0.5c14.2,0.2,28.5-1,42.4,0.9c23,3.1,38.8,22.3,39.5,47c0.7,26.6,0.5,53.3-0.3,80c-0.8,24-22,43.7-45.9,44.1
		c-12.7,0.2-25.3,0.1-38,0.1c-26.2-0.1-46.5-17-49.1-43c-1.6-15.8-0.3-31.9-0.3-48.3c14.7,0,29.3,0,44.5,0c0,10.9,0,21.7,0,32.4
		c0,10.9,3.1,14.1,13.9,14.1c6.5,0,13,0.1,19.5,0c6.6-0.2,10.6-4.1,10.7-10.7c0.1-19.2,0.1-38.3,0-57.5c0-7-4.1-10.6-11.6-10.7
		c-23.8-0.1-47.7,0-71.5,0c-2.3,0-4.7-0.1-7-0.2C22.7,234.7,22.7,186.1,22.7,137.4z"/>
	<path d="M182.9,272.1c0-28.3,0-56.7,0-85c0-28.7,20.1-49.3,48.7-49.7c13.5-0.2,27-0.3,40.5,0c27.5,0.6,48.1,20.9,48.2,48.3
		c0.3,57.7,0.3,115.3,0,173c-0.1,27.8-21.4,48.5-49.1,48.5c-16.6,0-33.4,0.8-49.9-1.3c-21.7-2.7-38.2-23.4-38.4-45.3
		C182.7,331.1,182.9,301.6,182.9,272.1C182.9,272.1,182.9,272.1,182.9,272.1z M274.9,273.2c0-26.1,0-52.3,0-78.4
		c0-7.3-3.5-10.8-10.6-10.9c-8.5-0.1-17-0.1-25.5,0c-7.2,0.1-11.1,3.9-11.2,11.2c-0.1,52-0.1,103.9,0,155.9c0,7.7,4,11.5,11.9,11.6
		c7.7,0.1,15.3,0,23,0c8.9,0,12.4-3.5,12.4-12.4C275,324.5,275,298.9,274.9,273.2z"/>
	<path d="M343.9,272.2c0-28.7,0-57.3,0-86c0-27.2,19.9-48,47.1-48.7c14.3-0.4,28.7-0.4,43,0c26.7,0.7,47,21,47.1,47.7
		c0.3,58.2,0.3,116.3,0,174.5c-0.2,27-21.3,47.5-48.3,47.6c-16.8,0-33.8,0.8-50.4-1.3c-21.9-2.7-38.4-23.5-38.5-45.8
		C343.8,330.8,343.9,301.5,343.9,272.2z M435.9,273.4c0-26.1,0-52.3,0-78.4c0-7.5-3.5-11-11-11.1c-8.5-0.1-17-0.1-25.5,0
		c-6.9,0.1-10.8,4-10.8,11c-0.1,52.1-0.1,104.3,0,156.4c0,7.1,4,11.1,11.2,11.2c7.8,0.1,15.7,0,23.5,0c9.2,0,12.6-3.4,12.6-12.7
		C435.9,324.4,435.9,298.9,435.9,273.4z"/>
	<path d="M192,64.7c11.7,1.8,12.6,10.7,13.7,19.6c0.7,6.2,2,12.4,3.1,18.8c3,0.3,5.7,0.6,8.4,0.9c0,0.3,0,0.6,0,0.8
		c-6.3,0-12.5,0-19.4,0c-1.3-7.9-2.6-15.9-3.8-23.9c-1.9-13.8-6.2-16.8-20.7-14c0,11.9,0,24,0,36.3c3.5,0.3,6.7,0.5,9.9,0.8
		c0,0.3,0,0.6-0.1,1c-10.6,0-21.2,0-31.8,0c0-0.3-0.1-0.6-0.1-1c3.1-0.2,6.3-0.5,10-0.8c0-25,0-49.8,0-75.3c-3.2-0.3-6.6-0.7-10-1.1
		c0-0.2-0.1-0.5-0.1-0.7c1.2-0.2,2.3-0.5,3.5-0.5c12.1,0.2,24.3-0.2,36.4,0.7c11.1,0.8,15.4,5.3,16.4,14.6
		c1.3,11.7-2.7,19-12.6,22.7C193.8,64.1,192.9,64.4,192,64.7z M173.2,64.7c7.9-0.5,15.7,2.1,20.6-5.8c3.7-5.9,3.2-22.2-0.9-26.8
		c-5.4-6.1-12.5-4.5-19.7-4.1C173.2,40.3,173.2,52.1,173.2,64.7z"/>
	<path d="M148.5,65.5c-0.8,5.4-1.1,11.1-2.5,16.6c-3.9,15.9-14.5,24.2-30,24c-15.8-0.2-26.4-8.3-29-24.8
		c-1.6-10.8-1.5-22.3,0.4-33.1c2.7-15.5,14.5-23.8,30.2-23.6c15.1,0.2,25.7,9.2,28.8,24.7C147.5,54.6,147.8,59.9,148.5,65.5z
		 M136,65.4c-1.1-8.8-1.5-17.6-3.3-26.2c-1.9-8.8-7.4-12.4-16.3-12.4c-8.7,0-13.9,3.4-16,12.1c-4.2,17.5-4.1,35.3,0.1,52.8
		c2.1,9,7.5,12.3,16.9,12.1c8.2-0.1,13.4-3.7,15.2-12.3C134.5,83,135,74.2,136,65.4z"/>
	<path d="M475.8,26.1c0,8.6,0,17,0,25.3c-0.3,0.1-0.7,0.2-1,0.4c-2.5-7.9-4.9-15.8-7.5-23.9c-7.5,0-14.8,0-22.4,0
		c0,11.4,0,22.4,0,34c4.2,0,8.2,0,12.8,0c0.6-4.7,1.1-9.4,1.7-14c0.3,0,0.6,0.1,0.8,0.1c0,10.3,0,20.6,0,31c-0.3,0-0.6,0.1-0.9,0.1
		c-0.5-4.7-1-9.3-1.6-14.4c-4.2,0-8.2,0-12.8,0c0,12.6,0,25.3,0,38.5c7.1,0,14.3,0,22.3,0c3.1-8.5,6.3-17.5,9.5-26.4
		c0.5,0.1,1,0.2,1.5,0.3c-0.7,9.1-1.3,18.3-2,27.9c-18.1,0-36.1,0-54.1,0c0-0.2-0.1-0.5-0.1-0.7c3.3-0.3,6.6-0.6,10.2-0.9
		c0-25.1,0-49.9,0-75.3c-3.5-0.4-6.8-0.7-10.2-1c0-0.3,0-0.5,0-0.8C439.8,26.1,457.2,26.1,475.8,26.1z"/>
	<path d="M349,104.1c3.3-0.5,6.7-1.1,9.7-1.6c0-24.9,0-49.4,0-73.8c-3.2-0.7-5.6-1.3-7.9-1.8c0-0.3,0-0.6,0.1-0.8
		c6.4,0,12.7,0,19.9,0c10.5,17.3,21.3,35.2,33.1,54.7c0-18.5,0-35.2,0-52.3c-3.1-0.5-6.3-1-9.6-1.5c0-0.3,0-0.5,0-0.8
		c7.6,0,15.2,0,22.8,0c0,0.3,0.1,0.5,0.1,0.8c-3.2,0.5-6.3,1-10.3,1.6c0,25.5,0,51,0,76.5c-0.5,0.1-1.1,0.3-1.6,0.4
		c-13.9-22.6-27.7-45.1-42.5-69.2c0,22.9,0,44.2,0,66.2c2.9,0.5,6.1,1,9.3,1.5c0,0.2,0,0.5,0,0.7c-7.7,0-15.3,0-23,0
		C349.1,104.6,349.1,104.4,349,104.1z"/>
	<path d="M287.9,28c-3.4-0.4-6.2-0.7-8.9-1c0-0.3,0-0.5,0-0.8c10.4,0,20.8,0,31.2,0c0,0.2,0.1,0.5,0.1,0.7
		c-3.3,0.3-6.6,0.7-10.3,1.1c-0.1,2-0.3,3.8-0.3,5.5c0,17.7,0,35.3,0,53c0,5.9,0.6,11.9,7.2,13.9c7.7,2.4,15.8,3.6,22.8-2.2
		c1.7-1.4,3.2-4.3,3.2-6.5c0.2-20.9,0.1-41.9,0.1-63.1c-2.8-0.6-5.4-1.1-8.1-1.6c0-0.3,0.1-0.6,0.1-0.9c6.8,0,13.6,0,20.3,0
		c0.1,0.3,0.1,0.6,0.2,0.9c-2.8,0.5-5.6,1-9.2,1.6c0,1.9,0,3.8,0,5.7c0,17.3,0,34.6,0,52c0,12.5-4.4,17.7-16.8,19.1
		c-5.5,0.6-11.3,0.4-16.8-0.5c-9.8-1.6-14.7-8.1-14.7-18.4C287.9,67.2,287.9,47.9,287.9,28z"/>
	<path d="M217.3,51.6c0-8.3,0-16.7,0-25.4c19.1,0,37.6,0,56.9,0c0,8.6,0,17.1,0,25.6c-0.3,0.1-0.5,0.3-0.8,0.4
		c-2.6-8-5.3-15.9-7.9-24c-4.6,0-9,0-13.6,0c0,25.2,0,50,0,75.2c3.6,0.3,7,0.6,10.4,0.8c0,0.3,0,0.6-0.1,0.9c-11,0-22,0-33,0
		c0-0.3-0.1-0.6-0.1-0.9c3.3-0.2,6.7-0.5,10.5-0.7c0-25,0-49.9,0-75.2c-4.2,0-8.4,0-13.3,0c-2.6,7.8-5.4,15.8-8.1,23.8
		C218,51.7,217.7,51.6,217.3,51.6z"/>
	<path d="M34.7,27.9c-3.3-0.3-6.4-0.6-9.5-0.9c0-0.2,0-0.5,0-0.7c17.2,0,34.4,0,52.5,0c0,8.3,0,16.8,0,25.3
		c-0.2,0.1-0.4,0.3-0.7,0.4c-2.7-7.9-5.4-15.9-8.2-24c-7.2,0-14.1,0-21.5,0c0,11.3,0,22.4,0,34c4.1,0,8.2,0,12.8,0
		c0.7-4.7,1.4-9.5,2.1-14.3c0.3,0,0.6,0,0.8,0c0,10.5,0,21.1,0,31.6c-0.3,0.1-0.6,0.1-0.9,0.2c-0.6-4.9-1.3-9.8-1.9-14.9
		c-4.5,0-8.5,0-13,0c0,13,0,25.7,0,38.9c3.9,0.2,7.4,0.4,10.9,0.7c0,0.3,0,0.6,0,0.9c-11,0-22,0-33,0c0-0.3-0.1-0.6-0.1-0.9
		c3-0.2,6-0.4,9.5-0.6C34.7,78.4,34.7,53.5,34.7,27.9z"/>
</g>
</svg>
