<svg id="Graph" xmlns="http://www.w3.org/2000/svg" viewBox="0 0 1012.25 251"><defs><style>.cls-1,.cls-2{fill:none;stroke:#fff;stroke-miterlimit:10;}.cls-1{stroke-width:2px;}</style></defs><title>dashes</title><line class="cls-1" x1="21.75" y1="0.5" x2="21.75" y2="240.5"/><line class="cls-1" x1="21.75" y1="240.5" x2="1011.75" y2="240.5"/><line class="cls-2" x1="21.75" y1="243" x2="21.75" y2="251"/><line class="cls-2" x1="31.75" y1="243" x2="31.75" y2="251"/><line class="cls-2" x1="41.75" y1="243" x2="41.75" y2="251"/><line class="cls-2" x1="51.75" y1="243" x2="51.75" y2="251"/><line class="cls-2" x1="61.75" y1="243" x2="61.75" y2="251"/><line class="cls-2" x1="71.75" y1="243" x2="71.75" y2="251"/><line class="cls-2" x1="81.75" y1="243" x2="81.75" y2="251"/><line class="cls-2" x1="91.75" y1="243" x2="91.75" y2="251"/><line class="cls-2" x1="101.75" y1="243" x2="101.75" y2="251"/><line class="cls-2" x1="111.75" y1="243" x2="111.75" y2="251"/><line class="cls-2" x1="121.75" y1="243" x2="121.75" y2="251"/><line class="cls-2" x1="131.75" y1="243" x2="131.75" y2="251"/><line class="cls-2" x1="141.75" y1="243" x2="141.75" y2="251"/><line class="cls-2" x1="151.75" y1="243" x2="151.75" y2="251"/><line class="cls-2" x1="161.75" y1="243" x2="161.75" y2="251"/><line class="cls-2" x1="171.75" y1="243" x2="171.75" y2="251"/><line class="cls-2" x1="181.75" y1="243" x2="181.75" y2="251"/><line class="cls-2" x1="191.75" y1="243" x2="191.75" y2="251"/><line class="cls-2" x1="201.75" y1="243" x2="201.75" y2="251"/><line class="cls-2" x1="211.75" y1="243" x2="211.75" y2="251"/><line class="cls-2" x1="221.75" y1="243" x2="221.75" y2="251"/><line class="cls-2" x1="231.75" y1="243" x2="231.75" y2="251"/><line class="cls-2" x1="241.75" y1="243" x2="241.75" y2="251"/><line class="cls-2" x1="251.75" y1="243" x2="251.75" y2="251"/><line class="cls-2" x1="261.75" y1="243" x2="261.75" y2="251"/><line class="cls-2" x1="271.75" y1="243" x2="271.75" y2="251"/><line class="cls-2" x1="281.75" y1="243" x2="281.75" y2="251"/><line class="cls-2" x1="291.75" y1="243" x2="291.75" y2="251"/><line class="cls-2" x1="301.75" y1="243" x2="301.75" y2="251"/><line class="cls-2" x1="311.75" y1="243" x2="311.75" y2="251"/><line class="cls-2" x1="321.75" y1="243" x2="321.75" y2="251"/><line class="cls-2" x1="331.75" y1="243" x2="331.75" y2="251"/><line class="cls-2" x1="341.75" y1="243" x2="341.75" y2="251"/><line class="cls-2" x1="351.75" y1="243" x2="351.75" y2="251"/><line class="cls-2" x1="361.75" y1="243" x2="361.75" y2="251"/><line class="cls-2" x1="371.75" y1="243" x2="371.75" y2="251"/><line class="cls-2" x1="381.75" y1="243" x2="381.75" y2="251"/><line class="cls-2" x1="391.75" y1="243" x2="391.75" y2="251"/><line class="cls-2" x1="401.75" y1="243" x2="401.75" y2="251"/><line class="cls-2" x1="411.75" y1="243" x2="411.75" y2="251"/><line class="cls-2" x1="421.75" y1="243" x2="421.75" y2="251"/><line class="cls-2" x1="431.75" y1="243" x2="431.75" y2="251"/><line class="cls-2" x1="441.75" y1="243" x2="441.75" y2="251"/><line class="cls-2" x1="451.75" y1="243" x2="451.75" y2="251"/><line class="cls-2" x1="461.75" y1="243" x2="461.75" y2="251"/><line class="cls-2" x1="471.75" y1="243" x2="471.75" y2="251"/><line class="cls-2" x1="481.75" y1="243" x2="481.75" y2="251"/><line class="cls-2" x1="491.75" y1="243" x2="491.75" y2="251"/><line class="cls-2" x1="501.75" y1="243" x2="501.75" y2="251"/><line class="cls-2" x1="511.75" y1="243" x2="511.75" y2="251"/><line class="cls-2" x1="521.75" y1="243" x2="521.75" y2="251"/><line class="cls-2" x1="531.75" y1="243" x2="531.75" y2="251"/><line class="cls-2" x1="541.75" y1="243" x2="541.75" y2="251"/><line class="cls-2" x1="551.75" y1="243" x2="551.75" y2="251"/><line class="cls-2" x1="561.75" y1="243" x2="561.75" y2="251"/><line class="cls-2" x1="571.75" y1="243" x2="571.75" y2="251"/><line class="cls-2" x1="581.75" y1="243" x2="581.75" y2="251"/><line class="cls-2" x1="591.75" y1="243" x2="591.75" y2="251"/><line class="cls-2" x1="601.75" y1="243" x2="601.75" y2="251"/><line class="cls-2" x1="611.75" y1="243" x2="611.75" y2="251"/><line class="cls-2" x1="621.75" y1="243" x2="621.75" y2="251"/><line class="cls-2" x1="631.75" y1="243" x2="631.75" y2="251"/><line class="cls-2" x1="641.75" y1="243" x2="641.75" y2="251"/><line class="cls-2" x1="651.75" y1="243" x2="651.75" y2="251"/><line class="cls-2" x1="661.75" y1="243" x2="661.75" y2="251"/><line class="cls-2" x1="671.75" y1="243" x2="671.75" y2="251"/><line class="cls-2" x1="681.75" y1="243" x2="681.75" y2="251"/><line class="cls-2" x1="691.75" y1="243" x2="691.75" y2="251"/><line class="cls-2" x1="701.75" y1="243" x2="701.75" y2="251"/><line class="cls-2" x1="711.75" y1="243" x2="711.75" y2="251"/><line class="cls-2" x1="721.75" y1="243" x2="721.75" y2="251"/><line class="cls-2" x1="731.75" y1="243" x2="731.75" y2="251"/><line class="cls-2" x1="741.75" y1="243" x2="741.75" y2="251"/><line class="cls-2" x1="751.75" y1="243" x2="751.75" y2="251"/><line class="cls-2" x1="761.75" y1="243" x2="761.75" y2="251"/><line class="cls-2" x1="771.75" y1="243" x2="771.75" y2="251"/><line class="cls-2" x1="781.75" y1="243" x2="781.75" y2="251"/><line class="cls-2" x1="791.75" y1="243" x2="791.75" y2="251"/><line class="cls-2" x1="801.75" y1="243" x2="801.75" y2="251"/><line class="cls-2" x1="811.75" y1="243" x2="811.75" y2="251"/><line class="cls-2" x1="821.75" y1="243" x2="821.75" y2="251"/><line class="cls-2" x1="831.75" y1="243" x2="831.75" y2="251"/><line class="cls-2" x1="841.75" y1="243" x2="841.75" y2="251"/><line class="cls-2" x1="851.75" y1="243" x2="851.75" y2="251"/><line class="cls-2" x1="861.75" y1="243" x2="861.75" y2="251"/><line class="cls-2" x1="871.75" y1="243" x2="871.75" y2="251"/><line class="cls-2" x1="881.75" y1="243" x2="881.75" y2="251"/><line class="cls-2" x1="891.75" y1="243" x2="891.75" y2="251"/><line class="cls-2" x1="901.75" y1="243" x2="901.75" y2="251"/><line class="cls-2" x1="911.75" y1="243" x2="911.75" y2="251"/><line class="cls-2" x1="921.75" y1="243" x2="921.75" y2="251"/><line class="cls-2" x1="931.75" y1="243" x2="931.75" y2="251"/><line class="cls-2" x1="941.75" y1="243" x2="941.75" y2="251"/><line class="cls-2" x1="951.75" y1="243" x2="951.75" y2="251"/><line class="cls-2" x1="961.75" y1="243" x2="961.75" y2="251"/><line class="cls-2" x1="971.75" y1="243" x2="971.75" y2="251"/><line class="cls-2" x1="981.75" y1="243" x2="981.75" y2="251"/><line class="cls-2" x1="991.75" y1="243" x2="991.75" y2="251"/><line class="cls-2" x1="1001.75" y1="243" x2="1001.75" y2="251"/><line class="cls-2" x1="1011.75" y1="243" x2="1011.75" y2="251"/><line class="cls-2" y1="240.5" x2="8" y2="240.5"/><line class="cls-2" y1="230.5" x2="8" y2="230.5"/><line class="cls-2" y1="220.5" x2="8" y2="220.5"/><line class="cls-2" y1="210.5" x2="8" y2="210.5"/><line class="cls-2" y1="200.5" x2="8" y2="200.5"/><line class="cls-2" y1="190.5" x2="8" y2="190.5"/><line class="cls-2" y1="180.5" x2="8" y2="180.5"/><line class="cls-2" y1="170.5" x2="8" y2="170.5"/><line class="cls-2" y1="160.5" x2="8" y2="160.5"/><line class="cls-2" y1="150.5" x2="8" y2="150.5"/><line class="cls-2" y1="140.5" x2="8" y2="140.5"/><line class="cls-2" y1="130.5" x2="8" y2="130.5"/><line class="cls-2" y1="120.5" x2="8" y2="120.5"/><line class="cls-2" y1="110.5" x2="8" y2="110.5"/><line class="cls-2" y1="100.5" x2="8" y2="100.5"/><line class="cls-2" y1="90.5" x2="8" y2="90.5"/><line class="cls-2" y1="80.5" x2="8" y2="80.5"/><line class="cls-2" y1="70.5" x2="8" y2="70.5"/><line class="cls-2" y1="60.5" x2="8" y2="60.5"/><line class="cls-2" y1="50.5" x2="8" y2="50.5"/><line class="cls-2" y1="40.5" x2="8" y2="40.5"/><line class="cls-2" y1="30.5" x2="8" y2="30.5"/><line class="cls-2" y1="20.5" x2="8" y2="20.5"/><line class="cls-2" y1="10.5" x2="8" y2="10.5"/><line class="cls-2" y1="0.5" x2="8" y2="0.5"/></svg>