<?xml version="1.0" encoding="utf-8"?>
<!-- Generator: Adobe Illustrator 22.0.1, SVG Export Plug-In . SVG Version: 6.00 Build 0)  -->
<svg version="1.1" xmlns="http://www.w3.org/2000/svg" xmlns:xlink="http://www.w3.org/1999/xlink" x="0px" y="0px"
	 viewBox="0 0 2783.5 225" style="enable-background:new 0 0 2783.5 225;" xml:space="preserve">
<style type="text/css">
	.st0{display:none;}
	.st1{display:inline;}
	.st2{opacity:0.33;fill:#6AC7FF;enable-background:new    ;}
	.st3{opacity:0.33;fill:#E99151;enable-background:new    ;}
	.st4{opacity:0.33;fill:#B16E92;enable-background:new    ;}
</style>
<g id="Layer_1" class="st0">
	<g id="Background" class="st1">
	</g>
	<g id="Layer_7">
		
			<image style="display:inline;overflow:visible;enable-background:new    ;" width="5094" height="1194" xlink:href="161EAE09.jpg"  transform="matrix(0.8088 0 0 0.8088 -2856.2415 -436.7859)">
		</image>
	</g>
	<g id="Data__x28_BOTTOM_x29_">
	</g>
	<g id="Data__x28_MIDDLE_x29_">
	</g>
	<g id="Data__x28_TOP_x29_">
	</g>
	<g id="Graph">
	</g>
	<g id="Layer_8" class="st1">
		<polygon class="st2" points="-1,262 2780.3,262 2780.3,125.8 2727.8,113.3 2697.8,147 2661.5,168.3 2620.3,149.5 2606.5,92 
			2575.3,69.5 2559,89.5 2540.3,133.3 2510.3,163.3 2435.3,198.3 2373.3,149.5 2357.5,115.3 2347,67.8 2320.3,42 2276.5,34.5 
			2255.3,109.5 2211.5,104.5 2161.5,114.5 2141.5,144.5 2095.3,154.5 2051.5,125.8 1989,155.8 1930.3,129.5 1911.5,102 1885.3,74.5 
			1799,72 1710.3,37 1664,45.8 1632.8,58.3 1614,102 1607.8,124.5 1569.5,114.3 1537,99.3 1514,69.5 1479,110.8 1420.3,130.8 
			1399,114.5 1302.8,98.3 1266.5,58.3 1150.3,75.8 1077.8,139.5 1014,89.5 930.3,70.8 772.8,90.8 741.5,125.8 651.5,57 425.3,64.5 
			340.3,133.3 289,87 146.6,62.2 74,49.5 -1,45.8 		"/>
	</g>
	<g id="Guides">
	</g>
</g>
<g id="Layer_1_copy" class="st0">
	<g id="Background_1_" class="st1">
	</g>
	<g id="Layer_7_1_">
		
			<image style="display:inline;overflow:visible;enable-background:new    ;" width="5094" height="1194" xlink:href="161EAE09.jpg"  transform="matrix(0.8088 0 0 0.8088 -2856.2415 -436.7859)">
		</image>
	</g>
	<g id="Data__x28_BOTTOM_x29__1_">
	</g>
	<g id="Data__x28_MIDDLE_x29__1_">
	</g>
	<g id="Data__x28_TOP_x29__1_">
	</g>
	<g id="Graph_1_">
	</g>
	<g id="Layer_8_1_" class="st1">
		<polygon class="st2" points="-1,215 2780.3,215 2780.3,107.1 2767.4,101.8 2749.8,129.5 2738.3,124.8 2727.8,129.5 2703.5,152 
			2698.5,159.1 2667.7,168.3 2644.3,166.9 2634.1,153 2626.5,149.5 2620,122.5 2615,115.8 2586.4,103.4 2572.5,120 2540.3,133.3 
			2524.1,160.4 2514.6,166.1 2478.5,171.5 2467.9,177.8 2435.3,184 2399,173 2393,165.8 2375.5,155.4 2364,118.2 2353.6,105 
			2344,79.5 2324.3,65 2313.6,65 2278.6,50.9 2265.8,72.9 2255.3,109.5 2238.6,100.8 2211.5,104.5 2161.5,114.5 2141.5,144.5 
			2134.1,149.8 2095.3,154.5 2085.3,149.8 2074.1,135.4 2051.5,125.8 2034.4,126.4 1989,155.8 1973.8,147.1 1949.5,144.5 
			1926.3,130.5 1911.5,102 1888.1,83.8 1802.3,83.5 1746.3,48.5 1713.1,46.3 1666.8,55 1635.6,67.5 1620.5,122.5 1599.5,150 
			1561.3,138.3 1523,93.8 1492.5,88.5 1459,121.3 1420.3,141.8 1389.8,121.3 1329,129.3 1283,117.1 1224,62.8 1167,71.3 
			1115.8,109.5 1086.8,145 1035.3,166 960.3,123.5 904.3,73.5 866,80.8 823.8,105.3 791.6,146 737,164.8 706.5,120.5 667.8,120.3 
			630.5,135.3 588.3,83.8 466,58.5 421.8,63.3 414.8,81.5 375.8,127.8 353.3,141.8 324.5,101.5 304.8,91.6 273,91.3 251.5,114.3 
			203.5,136.8 175.5,86.5 120.5,100.2 97.7,120 82,149.5 56.3,142.3 -1,45.8 		"/>
	</g>
	<g id="Guides_1_">
	</g>
</g>
<g id="Layer_1_copy_2">
	<g id="Background_2_">
	</g>
	<g id="Layer_7_2_" class="st0">
		
			<image style="display:inline;overflow:visible;enable-background:new    ;" width="5094" height="1194" xlink:href="161EAE09.jpg"  transform="matrix(0.8088 0 0 0.8088 -2856.2415 -436.7859)">
		</image>
	</g>
	<g id="Data__x28_BOTTOM_x29__2_" class="st0">
	</g>
	<g id="Data__x28_MIDDLE_x29__2_" class="st0">
	</g>
	<g id="Data__x28_TOP_x29__2_" class="st0">
	</g>
	<g id="Graph_2_" class="st0">
	</g>
	<g id="Layer_8_2_">
		<polygon class="st3" points="2780.3,45.8 2723,142.3 2697.3,149.5 2681.6,120 2658.8,100.2 2603.8,86.5 2575.8,136.8 
			2527.8,114.3 2506.3,91.3 2474.5,91.6 2454.8,101.5 2426.1,141.8 2403.6,127.8 2364.6,81.5 2357.6,63.3 2313.3,58.5 2191,83.8 
			2148.8,135.3 2111.5,120.3 2072.8,120.5 2042.3,164.8 1987.7,146 1955.6,105.3 1913.3,80.8 1875.1,73.5 1819.1,123.5 1744,166 
			1692.6,145 1663.6,109.5 1612.3,71.3 1555.3,62.8 1496.3,117.1 1450.3,129.3 1389.6,121.3 1359,141.8 1320.3,121.3 1286.8,88.5 
			1256.3,93.8 1218.1,138.3 1179.8,150 1158.8,122.5 1143.8,67.5 1112.6,55 1066.3,46.3 1033.1,48.5 977.1,83.5 891.3,83.8 
			867.8,102 853.1,130.5 829.8,144.5 805.6,147.1 790.3,155.8 744.9,126.4 727.8,125.8 705.2,135.4 694.1,149.8 684,154.5 
			645.2,149.8 637.8,144.5 617.8,114.5 567.8,104.5 540.7,100.8 524,109.5 513.5,72.9 500.7,50.9 465.7,65 455,65 435.3,79.5 
			425.7,105 415.3,118.2 403.8,155.4 386.3,165.8 380.3,173 344,184 311.4,177.8 300.8,171.5 264.7,166.1 255.2,160.4 239,133.3 
			206.8,120 192.9,103.4 164.3,115.8 159.3,122.5 152.8,149.5 145.2,153 135.1,166.9 111.6,168.3 80.8,159.1 75.8,152 51.5,129.5 
			41.1,124.8 29.5,129.5 11.9,101.8 -1,107.1 -1,215 2780.3,215 		"/>
	</g>
	<g id="Guides_2_" class="st0">
	</g>
</g>
<g id="Layer_1_copy_3" class="st0">
	<g id="Background_3_" class="st1">
	</g>
	<g id="Layer_7_3_">
		
			<image style="display:inline;overflow:visible;enable-background:new    ;" width="5094" height="1194" xlink:href="161EAE09.jpg"  transform="matrix(0.8088 0 0 0.8088 -2856.2415 -436.7859)">
		</image>
	</g>
	<g id="Data__x28_BOTTOM_x29__3_">
	</g>
	<g id="Data__x28_MIDDLE_x29__3_">
	</g>
	<g id="Data__x28_TOP_x29__3_">
	</g>
	<g id="Graph_3_">
	</g>
	<g id="Layer_8_3_" class="st1">
		<polygon class="st4" points="2780.3,66.8 2723,163.3 2697.3,170.5 2681.6,141 2658.8,121.2 2603.8,107.5 2575.8,157.8 
			2527.8,129.6 2506.3,106.6 2474.5,106.9 2433.1,128.5 2404.4,168.8 2390.2,141.1 2329.6,106.5 2322.6,88.3 2278.3,83.5 
			2201.7,104.8 2159.5,156.3 2122.2,141.3 2083.5,141.5 2053,185.8 1987.7,146 1955.6,105.3 1913.3,80.8 1875.1,73.5 1819.1,123.5 
			1744,166 1692.6,145 1666,117 1624,92.3 1567,83.7 1490.3,131 1444.3,143.1 1383.6,135.1 1353,155.6 1316.5,139.6 1283,106.8 
			1259,110.4 1220.7,154.9 1158.5,171.8 1137.5,144.3 1134.1,77.4 1102.9,64.9 1055.6,65.8 1022.4,68 941.3,112.3 889.4,102.8 
			866,121 851.2,149.5 828,163.5 803.7,166.1 788.5,174.8 751.7,140.4 734.6,139.8 706.8,152.9 695.7,167.3 685.7,172 646.8,167.3 
			639.5,162 617.8,125.2 567.8,115.2 540.7,111.4 524,127.5 516.2,104.3 492.3,88.8 464.3,97.5 453.7,97.5 437.1,112 428.8,123 
			418.4,136.2 412.7,155.4 387.7,174.3 378.3,187 348.8,196.7 329.4,196.5 312.3,192.3 284,177.5 264.5,168.3 256.7,131.7 
			230.8,123.8 208.8,113.8 188.3,127.8 177.5,133.7 164,155.5 147,162.2 134.3,175.5 104.7,184.2 86.8,164.8 79.6,162.7 56.2,184.8 
			41.1,175.8 28.5,179.2 9.5,145.3 -1,158.1 -1,215 2780.3,215 		"/>
	</g>
	<g id="Guides_3_">
	</g>
</g>
</svg>
