<?xml version="1.0" encoding="utf-8"?>
<!-- Generator: Adobe Illustrator 22.0.1, SVG Export Plug-In . SVG Version: 6.00 Build 0)  -->
<svg version="1.1" xmlns="http://www.w3.org/2000/svg" xmlns:xlink="http://www.w3.org/1999/xlink" x="0px" y="0px"
	 viewBox="0 0 2783.5 720" style="enable-background:new 0 0 2783.5 720;" xml:space="preserve">
<style type="text/css">
	.st0{display:none;}
	.st1{display:inline;fill:url(#SVGID_1_);}
	.st2{display:inline;opacity:0.5;fill:#FFFFFF;}
	.st3{display:none;fill:none;stroke:#FFFFFF;stroke-width:2;stroke-miterlimit:10;}
	.st4{fill:none;stroke:#FFFFFF;stroke-miterlimit:10;}
	.st5{opacity:0.33;fill:#FFFFFF;}
</style>
<g id="Background" class="st0">
</g>
<g id="Layer_7" class="st0">
	
		<image style="display:inline;overflow:visible;" width="5120" height="1200" xlink:href="3DC018D5.jpg"  transform="matrix(0.8047 0 0 0.8047 -2856.25 -148.75)">
	</image>
</g>
<g id="Data__x28_BOTTOM_x29_" class="st0">
</g>
<g id="Data__x28_MIDDLE_x29_" class="st0">
</g>
<g id="Data__x28_TOP_x29_" class="st0">
</g>
<g id="Graph">
</g>
<g id="Layer_8">
	<polygon class="st5" points="2783.8,550 2.5,550 2.5,413.8 55,401.3 85,435 121.3,456.3 162.5,437.5 176.3,380 207.5,357.5 
		223.8,377.5 242.5,421.3 272.5,451.3 347.5,486.3 409.5,437.5 425.3,403.3 435.8,355.8 462.5,330 506.3,322.5 527.5,397.5 
		571.3,392.5 621.3,402.5 641.3,432.5 687.5,442.5 731.3,413.8 793.8,443.8 852.5,417.5 871.3,390 897.5,362.5 983.8,360 
		1072.5,325 1118.8,333.8 1150,346.3 1168.8,390 1175,412.5 1213.3,402.3 1245.8,387.3 1268.8,357.5 1303.8,398.8 1362.5,418.8 
		1383.8,402.5 1480,386.3 1516.3,346.3 1632.5,363.8 1705,427.5 1768.8,377.5 1852.5,358.8 2010,378.8 2041.3,413.8 2131.3,345 
		2357.5,352.5 2442.5,421.3 2493.8,375 2708.8,337.5 2783.8,333.8 	"/>
</g>
<g id="Guides" class="st0">
</g>
</svg>
