<?xml version="1.0" encoding="utf-8"?>
<!-- Generator: Adobe Illustrator 22.0.1, SVG Export Plug-In . SVG Version: 6.00 Build 0)  -->
<svg version="1.1" xmlns="http://www.w3.org/2000/svg" xmlns:xlink="http://www.w3.org/1999/xlink" x="0px" y="0px"
	 viewBox="0 0 2782 225" style="enable-background:new 0 0 2782 225;" xml:space="preserve">
<style type="text/css">
	.st0{display:none;}
	.st1{display:inline;}
	.st2{opacity:0.33;fill:#6AC7FF;enable-background:new    ;}
	.st3{opacity:0.33;fill:#E99151;enable-background:new    ;}
	.st4{opacity:0.33;fill:#B16E92;enable-background:new    ;}
</style>
<g id="Layer_1" class="st0">
	<g id="Background" class="st1">
	</g>
	<g id="Layer_7">
		
			<image style="display:inline;overflow:visible;enable-background:new    ;" width="5094" height="1194" xlink:href="161EAE09.jpg"  transform="matrix(0.8088 0 0 0.8088 -2856.9915 -436.7859)">
		</image>
	</g>
	<g id="Data__x28_BOTTOM_x29_">
	</g>
	<g id="Data__x28_MIDDLE_x29_">
	</g>
	<g id="Data__x28_TOP_x29_">
	</g>
	<g id="Graph">
	</g>
	<g id="Layer_8" class="st1">
		<polygon class="st2" points="-1.8,262 2779.6,262 2779.6,125.8 2727.1,113.3 2697.1,147 2660.8,168.3 2619.6,149.5 2605.8,92 
			2574.6,69.5 2558.3,89.5 2539.6,133.3 2509.6,163.3 2434.6,198.3 2372.6,149.5 2356.8,115.3 2346.3,67.8 2319.6,42 2275.8,34.5 
			2254.6,109.5 2210.8,104.5 2160.8,114.5 2140.8,144.5 2094.6,154.5 2050.8,125.8 1988.3,155.8 1929.6,129.5 1910.8,102 
			1884.6,74.5 1798.3,72 1709.6,37 1663.3,45.8 1632.1,58.3 1613.3,102 1607.1,124.5 1568.8,114.3 1536.3,99.3 1513.3,69.5 
			1478.3,110.8 1419.6,130.8 1398.3,114.5 1302.1,98.3 1265.8,58.3 1149.6,75.8 1077.1,139.5 1013.3,89.5 929.5,70.8 772,90.8 
			740.8,125.8 650.8,57 424.5,64.5 339.5,133.3 288.3,87 145.8,62.2 73.3,49.5 -1.8,45.8 		"/>
	</g>
	<g id="Guides">
	</g>
</g>
<g id="Layer_1_copy" class="st0">
	<g id="Background_1_" class="st1">
	</g>
	<g id="Layer_7_1_">
		
			<image style="display:inline;overflow:visible;enable-background:new    ;" width="5094" height="1194" xlink:href="161EAE09.jpg"  transform="matrix(0.8088 0 0 0.8088 -2856.9915 -436.7859)">
		</image>
	</g>
	<g id="Data__x28_BOTTOM_x29__1_">
	</g>
	<g id="Data__x28_MIDDLE_x29__1_">
	</g>
	<g id="Data__x28_TOP_x29__1_">
	</g>
	<g id="Graph_1_">
	</g>
	<g id="Layer_8_1_" class="st1">
		<polygon class="st2" points="-1.8,215 2779.6,215 2779.6,107.1 2766.7,101.8 2749,129.5 2737.5,124.8 2727.1,129.5 2702.8,152 
			2697.8,159.1 2666.9,168.3 2643.5,166.9 2633.3,153 2625.8,149.5 2619.3,122.5 2614.3,115.8 2585.6,103.4 2571.8,120 
			2539.6,133.3 2523.4,160.4 2513.9,166.1 2477.8,171.5 2467.1,177.8 2434.6,184 2398.3,173 2392.3,165.8 2374.8,155.4 
			2363.3,118.2 2352.8,105 2343.3,79.5 2323.6,65 2312.9,65 2277.9,50.9 2265.1,72.9 2254.6,109.5 2237.9,100.8 2210.8,104.5 
			2160.8,114.5 2140.8,144.5 2133.4,149.8 2094.6,154.5 2084.5,149.8 2073.4,135.4 2050.8,125.8 2033.7,126.4 1988.3,155.8 
			1973,147.1 1948.8,144.5 1925.5,130.5 1910.8,102 1887.3,83.8 1801.5,83.5 1745.5,48.5 1712.3,46.3 1666,55 1634.8,67.5 
			1619.8,122.5 1598.8,150 1560.5,138.3 1522.3,93.8 1491.8,88.5 1458.3,121.3 1419.6,141.8 1389,121.3 1328.3,129.3 1282.2,117.1 
			1223.3,62.8 1166.2,71.3 1115,109.5 1086,145 1034.6,166 959.5,123.5 903.5,73.5 865.3,80.8 823,105.3 790.9,146 736.3,164.8 
			705.8,120.5 667.1,120.3 629.8,135.3 587.5,83.8 465.3,58.5 421,63.3 414,81.5 375,127.8 352.5,141.8 323.8,101.5 304.1,91.6 
			272.3,91.3 250.8,114.3 202.8,136.8 174.8,86.5 119.8,100.2 96.9,120 81.3,149.5 55.6,142.3 -1.8,45.8 		"/>
	</g>
	<g id="Guides_1_">
	</g>
</g>
<g id="Layer_1_copy_2" class="st0">
	<g id="Background_2_" class="st1">
	</g>
	<g id="Layer_7_2_">
		
			<image style="display:inline;overflow:visible;enable-background:new    ;" width="5094" height="1194" xlink:href="161EAE09.jpg"  transform="matrix(0.8088 0 0 0.8088 -2856.9915 -436.7859)">
		</image>
	</g>
	<g id="Data__x28_BOTTOM_x29__2_">
	</g>
	<g id="Data__x28_MIDDLE_x29__2_">
	</g>
	<g id="Data__x28_TOP_x29__2_">
	</g>
	<g id="Graph_2_">
	</g>
	<g id="Layer_8_2_" class="st1">
		<polygon class="st3" points="2779.6,45.8 2722.2,142.3 2696.6,149.5 2680.9,120 2658.1,100.2 2603.1,86.5 2575.1,136.8 
			2527.1,114.3 2505.6,91.3 2473.7,91.6 2454.1,101.5 2425.3,141.8 2402.8,127.8 2363.8,81.5 2356.8,63.3 2312.6,58.5 2190.3,83.8 
			2148.1,135.3 2110.7,120.3 2072.1,120.5 2041.6,164.8 1986.9,146 1954.8,105.3 1912.6,80.8 1874.3,73.5 1818.3,123.5 1743.3,166 
			1691.8,145 1662.8,109.5 1611.6,71.3 1554.6,62.8 1495.6,117.1 1449.6,129.3 1388.8,121.3 1358.3,141.8 1319.6,121.3 1286.1,88.5 
			1255.6,93.8 1217.3,138.3 1179.1,150 1158.1,122.5 1143,67.5 1111.8,55 1065.5,46.3 1032.3,48.5 976.3,83.5 890.5,83.8 867.1,102 
			852.3,130.5 829.1,144.5 804.8,147.1 789.6,155.8 744.1,126.4 727.1,125.8 704.4,135.4 693.3,149.8 683.3,154.5 644.4,149.8 
			637.1,144.5 617.1,114.5 567.1,104.5 539.9,100.8 523.3,109.5 512.7,72.9 499.9,50.9 464.9,65 454.3,65 434.6,79.5 425,105 
			414.6,118.2 403.1,155.4 385.6,165.8 379.6,173 343.3,184 310.7,177.8 300.1,171.5 263.9,166.1 254.4,160.4 238.3,133.3 
			206.1,120 192.2,103.4 163.6,115.8 158.6,122.5 152.1,149.5 144.5,153 134.3,166.9 110.9,168.3 80.1,159.1 75.1,152 50.8,129.5 
			40.3,124.8 28.8,129.5 11.1,101.8 -1.8,107.1 -1.8,215 2779.6,215 		"/>
	</g>
	<g id="Guides_2_">
	</g>
</g>
<g id="Layer_1_copy_3">
	<g id="Background_3_">
	</g>
	<g id="Layer_7_3_" class="st0">
		
			<image style="display:inline;overflow:visible;enable-background:new    ;" width="5094" height="1194" xlink:href="161EAE09.jpg"  transform="matrix(0.8088 0 0 0.8088 -2856.9915 -436.7859)">
		</image>
	</g>
	<g id="Data__x28_BOTTOM_x29__3_" class="st0">
	</g>
	<g id="Data__x28_MIDDLE_x29__3_" class="st0">
	</g>
	<g id="Data__x28_TOP_x29__3_" class="st0">
	</g>
	<g id="Graph_3_" class="st0">
	</g>
	<g id="Layer_8_3_">
		<polygon class="st4" points="2779.6,66.8 2722.2,163.3 2696.6,170.5 2680.9,141 2658.1,121.2 2603.1,107.5 2575.1,157.8 
			2527.1,129.6 2505.6,106.6 2473.7,106.9 2432.4,128.5 2403.6,168.8 2389.5,141.1 2328.8,106.5 2321.8,88.3 2277.6,83.5 
			2201,104.8 2158.7,156.3 2121.4,141.3 2082.7,141.5 2052.2,185.8 1986.9,146 1954.8,105.3 1912.6,80.8 1874.3,73.5 1818.3,123.5 
			1743.3,166 1691.8,145 1665.3,117 1623.3,92.3 1566.2,83.7 1489.6,131 1443.6,143.1 1382.8,135.1 1352.3,155.6 1315.7,139.6 
			1282.2,106.8 1258.2,110.4 1220,154.9 1157.7,171.8 1136.7,144.3 1133.3,77.4 1102.1,64.9 1054.8,65.8 1021.6,68 940.6,112.3 
			888.7,102.8 865.2,121 850.5,149.5 827.2,163.5 803,166.1 787.7,174.8 751,140.4 733.9,139.8 706.1,152.9 695,167.3 684.9,172 
			646.1,167.3 638.7,162 617.1,125.2 567.1,115.2 539.9,111.4 523.3,127.5 515.4,104.3 491.6,88.8 463.6,97.5 452.9,97.5 436.3,112 
			428.1,123 417.7,136.2 411.9,155.4 386.9,174.3 377.6,187 348.1,196.7 328.6,196.5 311.6,192.3 283.3,177.5 263.8,168.3 
			255.9,131.7 230.1,123.8 208.1,113.8 187.6,127.8 176.8,133.7 163.3,155.5 146.3,162.2 133.6,175.5 103.9,184.2 86.1,164.8 
			78.9,162.7 55.4,184.8 40.3,175.8 27.8,179.2 8.8,145.3 -1.8,158.1 -1.8,215 2779.6,215 		"/>
	</g>
	<g id="Guides_3_" class="st0">
	</g>
</g>
</svg>
