<?xml version="1.0" encoding="utf-8"?>
<!-- Generator: Adobe Illustrator 22.0.1, SVG Export Plug-In . SVG Version: 6.00 Build 0)  -->
<svg version="1.1" xmlns="http://www.w3.org/2000/svg" xmlns:xlink="http://www.w3.org/1999/xlink" x="0px" y="0px"
	 viewBox="0 0 2783.5 720" style="enable-background:new 0 0 2783.5 720;" xml:space="preserve">
<style type="text/css">
	.st0{fill:url(#SVGID_1_);}
	.st1{display:none;}
	.st2{display:inline;opacity:0.5;fill:#FFFFFF;}
	.st3{fill:none;stroke:#FFFFFF;stroke-width:2;stroke-miterlimit:10;}
	.st4{display:inline;fill:none;stroke:#FFFFFF;stroke-miterlimit:10;}
	.st5{opacity:0.33;fill:#FFFFFF;}
	.st6{fill:#FFFFFF;}
</style>
<g id="Background">
</g>
<g id="Layer_7" class="st1">
	
		<image style="display:inline;overflow:visible;" width="5120" height="1200" xlink:href="161EAE09.jpg"  transform="matrix(0.8047 0 0 0.8047 -2856.25 -148.75)">
	</image>
</g>
<g id="Data__x28_BOTTOM_x29_" class="st1">
</g>
<g id="Data__x28_MIDDLE_x29_" class="st1">
</g>
<g id="Data__x28_TOP_x29_" class="st1">
</g>
<g id="Graph" class="st1">
</g>
<g id="Layer_8">
	<polygon class="st5" points="2.5,550 2783.8,550 2783.8,413.8 2731.3,401.3 2701.3,435 2665,456.3 2623.8,437.5 2610,380 
		2578.8,357.5 2562.5,377.5 2543.8,421.3 2513.8,451.3 2438.8,486.3 2376.8,437.5 2361,403.3 2350.5,355.8 2323.8,330 2280,322.5 
		2258.8,397.5 2215,392.5 2165,402.5 2145,432.5 2098.8,442.5 2055,413.8 1992.5,443.8 1933.8,417.5 1915,390 1888.8,362.5 
		1802.5,360 1713.8,325 1667.5,333.8 1636.3,346.3 1617.5,390 1611.3,412.5 1573,402.3 1540.5,387.3 1517.5,357.5 1482.5,398.8 
		1423.8,418.8 1402.5,402.5 1306.3,386.3 1270,346.3 1153.8,363.8 1081.3,427.5 1017.5,377.5 933.8,358.8 776.3,378.8 745,413.8 
		655,345 428.8,352.5 343.8,421.3 292.5,375 77.5,337.5 2.5,333.8 	"/>
</g>
<g id="Guides" class="st1">
</g>
</svg>
